<svg width="176" height="72" viewBox="0 0 176 72" fill="none" xmlns="http://www.w3.org/2000/svg">
<path fill-rule="evenodd" clip-rule="evenodd" d="M43.2451 61.1835C43.5282 60.9653 43.7874 60.7845 44.1045 60.6188C47.2946 59.3284 47.6724 61.2611 50.3441 61.6464C48.6324 62.7693 46.8663 63.239 44.8411 62.8051C44.0858 62.4812 43.5951 62.0881 43.1838 61.3703C43.5061 61.3209 44.0172 61.2731 44.3374 61.3097C45.47 61.2832 46.3126 61.3992 47.4013 61.7105C46.2999 61.2679 45.4614 61.0967 44.273 61.1192C43.9068 61.1035 43.6066 61.1239 43.2451 61.1835ZM42.8261 59.7829C43.1752 59.8136 43.4676 59.8152 43.8147 59.7598C46.7584 58.8834 45.8762 57.0897 46.3177 54.7946C44.935 55.4366 43.9383 56.3182 43.0773 57.5731C42.7592 58.2837 42.6232 58.8762 42.6782 59.6576C43.0302 59.4913 43.2886 59.3259 43.5814 59.0684C44.3994 58.4324 44.8492 57.8127 45.1923 56.8343C44.9365 57.903 44.5146 58.5824 43.6458 59.2594C43.3807 59.4904 43.1454 59.637 42.8261 59.7829ZM48.2917 59.0548C49.8199 57.4379 50.5232 57.2568 52.6171 57.8059C53.4065 57.9597 54.0719 58.1111 54.878 57.9525C54.5075 58.3835 54.1609 58.7121 53.71 59.0583C52.0485 60.1811 49.8753 60.7897 48.2599 59.2509C49.5471 58.7292 50.7884 58.5766 52.1679 58.7103C50.8029 58.429 49.5795 58.5041 48.2917 59.0548ZM47.6042 57.8253C49.6213 57.3871 50.1883 56.5014 49.7611 54.5337C49.6453 53.8942 49.4435 53.2186 49.4261 52.5754C49.1468 52.8001 48.912 53.0196 48.6674 53.2813C47.6128 54.5494 47.0433 56.0997 47.4286 57.7443C48.4433 57.0005 48.9701 55.9309 48.9556 54.6751C49.0987 55.9537 48.6596 57.0675 47.6042 57.8253ZM52.4547 55.9196C54.4875 52.2856 55.6044 54.128 58.3555 53.0265C57.2796 55.1391 54.96 57.3702 52.4721 56.1126C53.5677 55.2669 54.7186 54.7379 56.0668 54.4298C54.6879 54.5934 53.5395 55.0483 52.4547 55.9196ZM51.5029 54.9545C54.6598 53.134 52.7207 51.7145 51.9001 49.4761C50.8618 50.9225 50.3331 53.3249 51.3179 54.926C52.0945 53.9524 52.3234 52.778 52.0066 51.5773C52.4551 52.7657 52.3118 53.9592 51.5029 54.9545ZM55.6824 51.5934C55.7395 51.2737 55.8029 50.9813 55.8992 50.671C56.9151 48.0541 58.5256 48.9088 60.4049 47.6352C60.0091 49.3232 59.2276 50.7043 57.6649 51.5457C57.0084 51.8449 56.4599 51.9421 55.7536 51.7614C55.9732 51.4639 56.1876 51.2077 56.4433 50.9409C57.1296 50.2515 57.7344 49.833 58.5997 49.3931C57.6505 49.7572 57.0042 50.14 56.2835 50.8612C56.0561 51.0989 55.8721 51.3248 55.6824 51.5934ZM54.5429 50.9642C54.7825 50.7528 54.9662 50.5605 55.1543 50.3018C56.456 48.0635 54.5948 47.3525 53.6123 45.6496C53.1063 46.9574 52.9926 48.0716 53.389 49.4276C53.6076 50.0649 53.8676 50.5244 54.366 50.9857C54.4935 50.6566 54.565 50.3821 54.6101 50.0326C54.6962 49.1434 54.5441 48.4924 54.1447 47.6983C54.6511 48.4929 54.8647 49.1664 54.7706 50.1119C54.7271 50.4246 54.6606 50.671 54.5429 50.9642ZM57.658 46.6445C57.6222 45.5004 57.7048 44.6504 58.5728 43.8396C59.5281 43.0438 60.5776 42.8507 61.4143 42.0199C61.3768 42.7859 61.2087 43.5731 60.9097 44.2804C60.3828 45.5264 59.2403 46.8614 57.7607 46.7868C58.2864 45.6078 58.8614 44.8865 59.8729 44.0847C59.8729 44.0847 59.9684 44.0109 59.9778 44.0037C59.9471 44.022 59.8767 44.0608 59.8529 44.0809C58.7681 44.7791 58.168 45.456 57.658 46.6445ZM56.4577 46.3017C57.0719 45.381 57.3747 44.5536 56.8541 43.5148C56.2131 42.4312 55.3341 42.079 54.6869 41.1217C54.5334 41.8084 54.4797 42.3707 54.5172 43.074C54.6529 44.4406 55.0817 45.6129 56.296 46.3632C56.4511 45.1526 56.2214 44.2856 55.5539 43.2693C55.5364 43.2506 55.5015 43.1925 55.4836 43.1674C55.4938 43.1789 55.5723 43.2684 55.5743 43.2735C56.3452 44.2284 56.6248 45.077 56.4577 46.3017ZM58.6619 41.5058C58.179 37.8966 60.0102 38.4703 61.7273 36.6024C61.7277 38.6212 61.0601 41.1762 58.7791 41.6315C59.0767 40.4465 59.6631 39.4456 60.549 38.6042C59.5699 39.3531 58.9437 40.3049 58.6619 41.5058ZM57.477 41.3519C58.7792 38.1105 56.7484 38.1472 55.2369 36.3138C54.9974 38.05 55.4688 40.7236 57.332 41.4397C57.3487 40.2555 56.947 39.1899 56.1849 38.2879C57.0498 39.1149 57.5085 40.149 57.477 41.3519ZM59.0533 36.4634C58.3215 33.078 60.1091 33.4779 61.6907 31.6798C61.7715 33.5826 61.2528 35.9663 59.1748 36.5737C59.359 35.4216 59.8482 34.43 60.6565 33.5878C59.7562 34.3449 59.2221 35.2985 59.0533 36.4634ZM57.9126 36.4127C58.9032 33.1616 57.0144 33.3866 55.4841 31.642C55.3203 33.3227 55.9159 35.9631 57.7817 36.5103C57.7016 35.3645 57.2561 34.3611 56.4769 33.5192C57.3516 34.2826 57.8465 35.2503 57.9126 36.4127ZM59.133 31.3951C58.329 28.2868 60.0477 28.5877 61.5631 26.9776C61.6445 28.7538 61.1395 30.8733 59.2528 31.4949C59.3836 30.4147 59.8273 29.4799 60.5883 28.7015C59.7384 29.4036 59.2503 30.2987 59.133 31.3951ZM58.0444 31.39C58.8782 28.2834 57.1185 28.5877 55.647 26.927C55.5412 28.7199 56.0243 30.8432 57.9233 31.4872C57.8035 30.4044 57.358 29.4752 56.6035 28.6909C57.4454 29.3977 57.9377 30.2923 58.0444 31.39ZM59.1261 26.5395C58.3939 23.7522 60.0119 24.0386 61.5376 22.7108C61.6093 24.1818 60.8504 26.2723 59.24 26.6298C59.37 25.6465 59.8116 24.8216 60.5533 24.1647C59.7345 24.7488 59.2446 25.5365 59.1261 26.5395ZM58.0916 26.528C58.9104 23.6954 57.2591 23.9883 55.9206 22.3915C55.6867 23.9107 56.2773 26.1989 57.976 26.6166C57.8657 25.6158 57.4547 24.7692 56.7663 24.0377C57.537 24.6993 57.9948 25.5109 58.0916 26.528ZM59.2353 22.2986C58.6764 19.8446 60.223 20.1528 61.7413 19.2294C61.6961 20.5663 60.7527 22.1681 59.3393 22.3834C59.5073 21.5168 59.9817 20.8352 60.7126 20.3471C59.9207 20.7657 59.3956 21.4077 59.2353 22.2986ZM58.2558 22.238C59.1663 19.7725 57.5865 19.9456 56.4706 18.3991C56.1007 19.8083 56.5737 21.8646 58.1424 22.3109C58.081 21.4008 57.7305 20.6345 57.1414 19.9447C57.8072 20.5765 58.2089 21.3113 58.2558 22.238ZM59.5597 18.9158C59.2225 16.7563 60.7434 17.1553 62.168 16.6804C61.9804 17.8543 60.8572 18.949 59.6514 18.9976C59.8785 18.2542 60.3964 17.7375 61.1062 17.4378C60.3556 17.671 59.7836 18.1434 59.5597 18.9158ZM58.6429 18.7725C59.6974 16.7127 58.1672 16.6633 57.352 15.1748C56.8047 16.4433 57.1049 18.2994 58.5304 18.8254C58.5422 18.0074 58.2676 17.3061 57.8018 16.6437C58.3397 17.261 58.6701 17.9396 58.6429 18.7725ZM24.7017 66.9416C25.7486 67.0251 25.9609 67.9655 27.449 67.6108C28.2465 65.3431 38.3474 62.002 41.905 61.0715C42.6049 60.8886 43.3151 60.6797 44.0441 60.4402C46.9248 59.4181 49.0114 58.3362 51.3436 56.3463C53.3188 54.556 54.5115 52.9523 55.7136 50.5789C56.8245 48.2438 57.4051 46.2412 57.8927 43.7109C59.3215 34.7012 58.0351 26.6483 59.3164 18.1238C59.2573 18.1123 59.1979 18.1012 59.1383 18.0901C57.7861 26.5997 59.0216 34.6672 57.5346 43.6435C57.0358 46.1321 56.451 48.1022 55.3402 50.3938C54.1488 52.7025 52.9758 54.258 51.0348 55.9928C48.7424 57.9174 46.6942 58.9575 43.8744 59.9379C43.1438 60.1707 42.4319 60.3736 41.7307 60.55C36.4283 61.8852 26.1761 62.6584 24.7017 66.9416Z" fill="#0F172B"/>
<path fill-rule="evenodd" clip-rule="evenodd" d="M20.6473 61.1835C20.3641 60.9653 20.1045 60.7845 19.7879 60.6188C16.5977 59.3284 16.2199 61.2611 13.5481 61.6464C15.26 62.7693 17.0256 63.239 19.0513 62.8051C19.8065 62.4812 20.2972 62.0881 20.7086 61.3703C20.3863 61.3209 19.8748 61.2731 19.5549 61.3097C18.4224 61.2832 17.5797 61.3992 16.4909 61.7105C17.5925 61.2679 18.431 61.0967 19.6194 61.1192C19.9855 61.1035 20.2856 61.1239 20.6473 61.1835ZM21.0662 59.7829C20.717 59.8136 20.4242 59.8152 20.0776 59.7598C17.1334 58.8834 18.0161 57.0897 17.5743 54.7946C18.9574 55.4366 19.9541 56.3182 20.8152 57.5731C21.1333 58.2837 21.2691 58.8762 21.2142 59.6576C20.8623 59.4913 20.6038 59.3259 20.311 59.0684C19.4925 58.4324 19.0429 57.8127 18.7001 56.8343C18.9558 57.903 19.3779 58.5824 20.2465 59.2594C20.5116 59.4904 20.7469 59.637 21.0662 59.7829ZM15.6006 59.0548C14.0724 57.4379 13.3691 57.2568 11.2753 57.8059C10.4858 57.9597 9.81997 58.1111 9.01437 57.9525C9.3848 58.3835 9.73145 58.7121 10.182 59.0583C11.844 60.1811 14.017 60.7897 15.6325 59.2509C14.3453 58.7292 13.104 58.5766 11.7245 58.7103C13.0894 58.429 14.3128 58.5041 15.6006 59.0548ZM16.2877 57.8253C14.271 57.3871 13.704 56.5014 14.1312 54.5337C14.2471 53.8942 14.4483 53.2186 14.4662 52.5754C14.7454 52.8001 14.9799 53.0196 15.225 53.2813C16.2795 54.5494 16.849 56.0997 16.4637 57.7443C15.4491 57.0005 14.9222 55.9309 14.9367 54.6751C14.7936 55.9537 15.2327 57.0675 16.2877 57.8253ZM11.4375 55.9196C9.40479 52.2856 8.28793 54.128 5.53684 53.0265C6.61272 55.1391 8.93243 57.3702 11.4202 56.1126C10.3242 55.2669 9.1738 54.7379 7.82544 54.4298C9.20449 54.5934 10.3528 55.0483 11.4375 55.9196ZM12.389 54.9545C9.23247 53.134 11.1711 51.7145 11.9922 49.4761C13.0306 50.9225 13.5591 53.3249 12.5745 54.926C11.7979 53.9524 11.5689 52.778 11.8857 51.5773C11.4372 52.7657 11.5804 53.9592 12.389 54.9545ZM8.2099 51.5934C8.15281 51.2737 8.08893 50.9813 7.99266 50.671C6.97722 48.0541 5.36682 48.9088 3.48733 47.6352C3.88332 49.3232 4.66465 50.7043 6.22745 51.5457C6.88387 51.8449 7.43241 51.9421 8.1387 51.7614C7.9187 51.4639 7.70474 51.2077 7.4486 50.9409C6.76264 50.2515 6.15786 49.833 5.29254 49.3931C6.24187 49.7572 6.88806 50.14 7.60891 50.8612C7.83614 51.0989 8.02018 51.3248 8.2099 51.5934ZM9.34936 50.9642C9.10978 50.7528 8.92603 50.5605 8.7381 50.3018C7.43625 48.0635 9.29739 47.3525 10.2795 45.6496C10.7859 46.9574 10.8997 48.0716 10.5033 49.4276C10.2843 50.0649 10.0246 50.5244 9.5263 50.9857C9.39891 50.6566 9.32735 50.3821 9.2821 50.0326C9.19599 49.1434 9.34824 48.4924 9.74758 47.6983C9.24118 48.4929 9.02756 49.1664 9.12174 50.1119C9.16521 50.4246 9.23172 50.671 9.34936 50.9642ZM6.23425 46.6445C6.27008 45.5004 6.18743 44.6504 5.3195 43.8396C4.3643 43.0438 3.31471 42.8507 2.4781 42.0199C2.5155 42.7859 2.68354 43.5731 2.98231 44.2804C3.50956 45.5264 4.65207 46.8614 6.13169 46.7868C5.60569 45.6078 5.03108 44.8865 4.01952 44.0847C4.01952 44.0847 3.92398 44.0109 3.91466 44.0037C3.94535 44.022 4.01564 44.0608 4.03952 44.0809C5.1242 44.7791 5.72428 45.456 6.23425 46.6445ZM7.43469 46.3017C6.82038 45.381 6.51771 44.5536 7.03816 43.5148C7.67929 42.4312 8.55823 42.079 9.20501 41.1217C9.3589 41.8084 9.41244 42.3707 9.37504 43.074C9.23948 44.4406 8.81018 45.6129 7.59623 46.3632C7.44118 45.1526 7.67093 44.2856 8.33793 43.2693C8.35595 43.2506 8.3904 43.1925 8.40832 43.1674C8.39847 43.1789 8.31971 43.2684 8.31793 43.2735C7.54722 44.2284 7.26749 45.077 7.43469 46.3017ZM5.23003 41.5058C5.71329 37.8966 3.88206 38.4703 2.16505 36.6024C2.16463 38.6212 2.83217 41.1762 5.1132 41.6315C4.81569 40.4465 4.22914 39.4456 3.34329 38.6042C4.32195 39.3531 4.94865 40.3049 5.23003 41.5058ZM6.41538 41.3519C5.11312 38.1105 7.14386 38.1472 8.65533 36.3138C8.89492 38.05 8.4235 40.7236 6.55994 41.4397C6.5437 40.2555 6.94526 39.1899 7.70738 38.2879C6.84249 39.1149 6.38374 40.149 6.41538 41.3519ZM4.83898 36.4634C5.57083 33.078 3.78318 33.4779 2.20173 31.6798C2.12075 33.5826 2.63901 35.9663 4.71754 36.5737C4.53296 35.4216 4.04404 34.43 3.23582 33.5878C4.13612 34.3449 4.67021 35.2985 4.83898 36.4634ZM5.97967 36.4127C4.98864 33.1616 6.87747 33.3866 8.40822 31.642C8.57196 33.3227 7.97638 35.9631 6.11062 36.5103C6.19076 35.3645 6.63579 34.3611 7.41541 33.5192C6.54066 34.2826 6.04577 35.2503 5.97967 36.4127ZM4.75933 31.3951C5.56326 28.2868 3.8446 28.5877 2.32915 26.9776C2.24785 28.7538 2.75287 30.8733 4.63948 31.4949C4.50822 30.4147 4.06498 29.4799 3.304 28.7015C4.15392 29.4036 4.64211 30.2987 4.75933 31.3951ZM5.848 31.39C5.01422 28.2834 6.77385 28.5877 8.2453 26.927C8.3511 28.7199 7.86806 30.8432 5.96898 31.4872C6.08882 30.4044 6.53428 29.4752 7.28834 28.6909C6.44692 29.3977 5.95454 30.2923 5.848 31.39ZM4.76573 26.5395C5.49841 23.7522 3.88039 24.0386 2.35467 22.7108C2.2826 24.1818 3.04149 26.2723 4.65237 26.6298C4.52226 25.6465 4.08069 24.8216 3.33899 24.1647C4.15779 24.7488 4.64766 25.5365 4.76573 26.5395ZM5.80064 26.528C4.98184 23.6954 6.63317 23.9883 7.97179 22.3915C8.2053 23.9107 7.61455 26.1989 5.91629 26.6166C6.02618 25.6158 6.43772 24.7692 7.12599 24.0377C6.35538 24.6993 5.89743 25.5109 5.80064 26.528ZM4.65657 22.2986C5.21588 19.8446 3.66891 20.1528 2.15063 19.2294C2.19578 20.5663 3.13947 22.1681 4.55299 22.3834C4.38506 21.5168 3.91068 20.8352 3.17924 20.3471C3.97165 20.7657 4.49671 21.4077 4.65657 22.2986ZM5.63649 22.238C4.72561 19.7725 6.3058 19.9456 7.4217 18.3991C7.79171 19.8083 7.3182 21.8646 5.74984 22.3109C5.81123 21.4008 6.16173 20.6345 6.75038 19.9447C6.08505 20.5765 5.68342 21.3113 5.63649 22.238ZM4.33211 18.9158C4.66975 16.7563 3.14885 17.1553 1.72412 16.6804C1.91175 17.8543 3.03502 18.949 4.2408 18.9976C4.01327 18.2542 3.49584 17.7375 2.78599 17.4378C3.5368 17.671 4.10876 18.1434 4.33211 18.9158ZM5.24952 18.7725C4.19491 16.7127 5.72522 16.6633 6.54024 15.1748C7.08761 16.4433 6.78736 18.2994 5.36201 18.8254C5.35006 18.0074 5.62465 17.3061 6.09051 16.6437C5.55268 17.261 5.22218 17.9396 5.24952 18.7725ZM39.1906 66.9416C38.1437 67.0251 37.9315 67.9655 36.4433 67.6108C35.6458 65.3431 25.5449 62.002 21.9874 61.0715C21.2874 60.8886 20.5772 60.6797 19.8483 60.4402C16.9675 59.4181 14.881 58.3362 12.5488 56.3463C10.5735 54.556 9.38081 52.9523 8.1787 50.5789C7.06783 48.2438 6.48722 46.2412 5.99957 43.7109C4.57075 34.7012 5.85721 26.6483 4.5759 18.1238C4.63467 18.1123 4.6944 18.1012 4.75412 18.0901C6.10614 26.5997 4.87083 34.6672 6.35768 43.6435C6.85655 46.1321 7.44129 48.1022 8.55206 50.3938C9.74349 52.7025 10.9166 54.258 12.8575 55.9928C15.1499 57.9174 17.1982 58.9575 20.018 59.9379C20.7486 60.1707 21.4605 60.3736 22.1617 60.55C27.464 61.8852 37.7157 62.6584 39.1906 66.9416Z" fill="#0F172B"/>
<path fill-rule="evenodd" clip-rule="evenodd" d="M23.2971 7.57566L23.9287 9.53225L25.9842 9.52796L24.3188 10.7334L24.9577 12.6874L23.2971 11.476L21.6359 12.6874L22.275 10.7334L20.6095 9.52796L22.6654 9.53225L23.2971 7.57566ZM40.5957 7.57566L39.964 9.53225L37.9085 9.52796L39.574 10.7334L38.9349 12.6874L40.5957 11.476L42.2568 12.6874L41.6177 10.7334L43.2832 9.52796L41.2273 9.53225L40.5957 7.57566ZM16.6383 10.6038L17.1417 12.1631L18.7811 12.1606L17.4528 13.1214L17.9622 14.679L16.6382 13.713L15.3141 14.679L15.8236 13.1214L14.4956 12.1606L16.1347 12.1631L16.6383 10.6038ZM47.2544 10.6038L46.751 12.1631L45.1116 12.1601L46.4399 13.1214L45.9306 14.679L47.2545 13.713L48.5786 14.679L48.0692 13.1214L49.3971 12.1601L47.7581 12.1631L47.2544 10.6038ZM31.9463 4.30957L32.853 7.11786L35.8037 7.11189L33.4131 8.84168L34.3305 11.6465L31.9463 9.90729L29.5627 11.6465L30.4796 8.84168L28.0891 7.11189L31.0397 7.11786L31.9463 4.30957Z" fill="#0092B8"/>
<path fill-rule="evenodd" clip-rule="evenodd" d="M30.9015 49.3951C26.54 46.5373 21.4793 44.0403 16.301 43.4111C15.6233 44.1835 14.8253 45.2287 13.9088 46.5468C14.8475 46.432 15.7819 46.3612 16.7129 46.3336C21.5425 46.1899 26.2723 47.2108 30.9015 49.3951ZM18.5023 38.6752C20.5186 39.1561 22.5503 39.8769 24.5637 40.7985C26.8187 41.8306 29.0511 43.1144 31.2154 44.5953V45.0062C29.0081 43.481 26.7275 42.1612 24.4232 41.1067C22.4145 40.1876 20.3878 39.4702 18.377 38.995L18.5023 38.6752ZM19.522 36.07C21.354 36.5687 23.1948 37.2635 25.0191 38.1228C27.1194 39.1126 29.1978 40.3224 31.2154 41.7035V42.1157C29.1521 40.689 27.0242 39.4435 24.8742 38.4302C23.0558 37.573 21.2219 36.8824 19.3974 36.388L19.522 36.07ZM20.54 33.4706C22.1878 33.9846 23.8397 34.6514 25.4752 35.4488C27.418 36.3961 29.3418 37.5295 31.2154 38.8126V39.2234C29.2988 37.8987 27.3243 36.7289 25.3264 35.7544C23.6976 34.9602 22.0541 34.2974 20.4153 33.7877L20.54 33.4706ZM32.9913 49.3951C37.3528 46.5373 42.4134 44.0403 47.5908 43.4111C48.2696 44.1835 49.067 45.2287 49.984 46.5468C49.0452 46.432 48.1105 46.3612 47.1795 46.3336C42.3504 46.1899 37.6205 47.2108 32.9913 49.3951ZM50.1791 42.6783C44.702 42.6438 38.6243 44.8817 31.946 49.3924C25.2681 44.8817 19.1903 42.6438 13.7136 42.6783L19.8502 29.7236C23.1819 30.808 28.0362 32.9172 31.376 36.2361L31.2111 36.1228L31.2097 36.1219L31.0465 36.0101L31.043 36.0079L30.881 35.8975L30.8768 35.895L30.7097 35.7825L30.5494 35.676L30.5426 35.6708L30.3836 35.566L30.3746 35.5604L30.2169 35.4569L30.2076 35.4509L30.0506 35.3486L30.0396 35.3414L29.8841 35.2412L29.8713 35.2331L29.7174 35.1347L29.7028 35.1258L29.5502 35.029L29.4172 34.9459L29.3827 34.9242L29.3652 34.9131L29.2152 34.8198L29.1963 34.8082L29.0472 34.7162L29.0267 34.7038L28.8792 34.6138L28.8571 34.6002L28.7109 34.5115L28.6874 34.4978L28.6452 34.4723L28.5212 34.3981L28.5177 34.396L28.3737 34.3103L28.3477 34.295L28.2049 34.2115L28.1776 34.1953L28.1341 34.1702L28.016 34.1015L28.0071 34.096L27.8668 34.0154L27.8362 33.9975L27.6976 33.9182L27.6653 33.9003L27.5279 33.8228L27.4946 33.804L27.4495 33.7785L27.3276 33.7107L27.3002 33.6954L27.1647 33.6208L27.1179 33.5944L26.9836 33.5211L26.9614 33.5091L26.8254 33.4358L26.7615 33.4012L26.6511 33.342L26.637 33.3344L26.5074 33.2658L26.4929 33.2581L26.4008 33.2099L26.3087 33.1613L26.2542 33.1331L26.1246 33.0658L26.105 33.0555L25.9711 32.9869L25.8824 32.9417L25.7972 32.8987L25.7269 32.8629L25.6223 32.8109L25.5547 32.7768L25.4563 32.7282L25.3659 32.6839L25.2816 32.6421L25.221 32.6132L25.0931 32.551L25.0667 32.5382L24.9222 32.4692L24.8846 32.4513L24.7599 32.3924L24.6916 32.3609L24.5957 32.3157L24.5066 32.2747L24.4145 32.2321L24.3557 32.2053L24.2423 32.1536L24.1741 32.1229L24.0753 32.0786L23.9836 32.0377L23.9089 32.0045L23.8168 31.9639L23.7223 31.9226L23.6665 31.8988L23.545 31.846L23.4862 31.8208L23.383 31.7769L23.2947 31.7398L23.2112 31.7044L23.1375 31.6741L23.0301 31.6294L22.9542 31.5987L22.8681 31.5638L22.7828 31.529L22.6856 31.4901L22.6073 31.459L22.5263 31.4266L22.4189 31.3848L22.3481 31.3576L22.2684 31.3265L22.1653 31.2869L22.095 31.2605L21.9845 31.2187L21.9214 31.1948L21.8289 31.1607L21.735 31.1262L21.6473 31.0942L21.5732 31.0674L21.47 31.0303L21.401 31.0056L21.2932 30.9672L21.2297 30.9451L21.1205 30.9076L21.0575 30.8859L20.9441 30.8471L20.8754 30.824L20.7898 30.7951L20.6884 30.7619L20.6227 30.7405L20.6082 30.7354L20.5195 30.7064L20.4849 30.6954H20.4845L19.4529 33.3305L18.4205 35.9682L17.3872 38.6077L16.3531 41.2487L16.4827 41.271C21.6618 42.1534 26.9979 44.6803 31.946 48.2037C36.9359 44.6504 42.3196 42.1106 47.5393 41.2487L46.5056 38.6077L45.4724 35.9682L44.4396 33.3305L43.4267 30.744L43.4079 30.6954L43.3734 30.7064L43.2698 30.7405L43.2046 30.7619L43.1033 30.7951L43.0172 30.824L42.948 30.8471L42.8355 30.8859L42.7724 30.9076L42.6628 30.9451L42.5994 30.9672L42.492 31.0056L42.423 31.0303L42.3189 31.0674L42.2457 31.0942L42.1579 31.1262L42.0632 31.1607L41.9711 31.1948L41.908 31.2187L41.7977 31.2605L41.7274 31.2869L41.6246 31.3265L41.5444 31.3576L41.4732 31.3848L41.3658 31.4266L41.2852 31.459L41.2072 31.4901L41.11 31.529L41.0247 31.5638L40.9387 31.5987L40.8628 31.6294L40.7555 31.6741L40.6812 31.7044L40.5981 31.7398L40.5099 31.7769L40.4067 31.8208L40.3475 31.846L40.2261 31.8988L40.1706 31.9226L40.0761 31.9639L39.9836 32.0045L39.9094 32.0377L39.8177 32.0786L39.7185 32.1229L39.6503 32.1536L39.5373 32.2053L39.4785 32.2321L39.3864 32.2747L39.2969 32.3157L39.2015 32.3609L39.1333 32.3924L39.0084 32.4513L38.9706 32.4692L38.826 32.5382L38.7995 32.551L38.6721 32.6132L38.6116 32.6421L38.5271 32.6839L38.4368 32.7282L38.338 32.7768L38.2703 32.8109L38.1658 32.8629L38.0954 32.8987L38.0106 32.9417L37.9214 32.9869L37.7881 33.0555L37.768 33.0658L37.6385 33.1331L37.5839 33.1613L37.4923 33.2099L37.3997 33.2581L37.3853 33.2658L37.2561 33.3344L37.2416 33.342L37.1311 33.4012L37.0672 33.4358L36.9312 33.5091L36.9091 33.5211L36.7753 33.5944L36.7283 33.6208L36.5929 33.6954L36.5646 33.7107L36.4437 33.7785L36.3984 33.804L36.3647 33.8228L36.2275 33.9003L36.1954 33.9182L36.0565 33.9975L36.0258 34.0154L35.8861 34.096L35.8766 34.1015L35.7586 34.1702L35.7154 34.1953L35.6877 34.2115L35.545 34.295L35.519 34.3103L35.3754 34.396L35.3719 34.3981L35.2475 34.4723L35.2052 34.4978L35.1817 34.5115L35.0351 34.6002L35.0138 34.6138L34.8659 34.7038L34.8459 34.7162L34.6967 34.8082L34.678 34.8198L34.5279 34.9131L34.5101 34.9242L34.4755 34.9459L34.3428 35.029L34.1902 35.1258L34.1756 35.1347L34.0218 35.2331L34.0087 35.2412L33.8534 35.3414L33.8424 35.3486L33.6856 35.4509L33.6753 35.4569L33.5181 35.5604L33.5091 35.566L33.3504 35.6708L33.3432 35.676L33.1834 35.7825L33.0164 35.895L33.0121 35.8975L32.8496 36.0079L32.8467 36.0101L32.6829 36.1219L32.6816 36.1228L32.5167 36.2361C35.8569 32.9172 40.7108 30.808 44.0424 29.7236L50.1791 42.6783ZM34.9315 49.1767C39.004 47.5178 43.2263 46.7368 47.5994 46.9308C48.4766 48.216 49.1577 49.4548 49.6424 50.6483C44.7609 48.7735 39.8571 48.2834 34.9315 49.1767ZM45.3905 38.6752C43.3743 39.1561 41.3426 39.8769 39.3281 40.7985C37.0739 41.8306 34.8412 43.1144 32.6775 44.5953V45.0062C34.8847 43.481 37.1653 42.1612 39.4692 41.1067C41.4782 40.1876 43.5046 39.4702 45.5157 38.995L45.3905 38.6752ZM44.3709 36.07C42.5387 36.5687 40.6977 37.2635 38.8737 38.1228C36.773 39.1126 34.6945 40.3224 32.6775 41.7035V42.1157C34.7406 40.689 36.8686 39.4435 39.0186 38.4302C40.8366 37.573 42.6708 36.8824 44.4953 36.388L44.3709 36.07ZM43.3529 33.4706C41.7045 33.9846 40.0527 34.6514 38.4172 35.4488C36.4747 36.3961 34.5506 37.5295 32.6775 38.8126V39.2234C34.594 37.8987 36.5685 36.7289 38.566 35.7544C40.1951 34.9602 41.8384 34.2974 43.4774 33.7877L43.3529 33.4706ZM28.9612 49.1767C24.8887 47.5178 20.666 46.7368 16.2934 46.9308C15.4153 48.216 14.7342 49.4548 14.2499 50.6483C19.1315 48.7735 24.0352 48.2834 28.9612 49.1767ZM43.4078 30.6948L43.3733 30.7058ZM20.4845 30.6948L20.5195 30.7058L20.6226 30.7399" fill="#0092B8"/>
<path fill-rule="evenodd" clip-rule="evenodd" d="M32.8243 31.2629C32.5472 31.1751 32.2524 31.1278 31.9458 31.1278C31.6398 31.1278 31.3448 31.1751 31.0677 31.2629L29.2177 28.8362H34.6748L32.8243 31.2629ZM31.9458 34.6172L27.198 28.3907V16.9736H28.5365V27.4978H29.9172V16.9736H31.2557V27.4978H32.6364V16.9736H33.9748V27.4978H35.3551V16.9736H36.694V28.3907L31.9458 34.6172Z" fill="#0092B8"/>
<path d="M161.043 27.4806H165.232L167.701 32.8229L170.126 27.4806H174.276L169.528 36.4836V41.3433H165.81V36.4836L161.043 27.4806ZM154.236 27.4806H159.667V41.3433H156.044V31.1583L153.261 41.3433H149.542L146.739 31.0467V41.3433H143.116V27.4806H148.548L151.389 37.5076L154.236 27.4806ZM130.016 41.3434V27.4808H140.431V30.5697H133.735V32.9725H140.237V35.6419H133.735V38.2545H140.58V41.3436H130.016V41.3434ZM118.995 38.2543H121.76C122.612 38.2543 123.171 38.1012 123.438 37.7966C123.705 37.4944 123.838 36.7478 123.838 35.5621V33.2812C123.838 32.0956 123.705 31.3454 123.435 31.0371C123.165 30.7252 122.605 30.5696 121.76 30.5696H118.995L118.995 38.2543ZM115.277 41.3434V27.4808H122.329C124.29 27.4808 125.662 27.8909 126.451 28.7111C127.239 29.5276 127.633 30.9606 127.633 33.0112V35.8138C127.633 37.8636 127.239 39.2966 126.451 40.1132C125.663 40.9335 124.29 41.3436 122.329 41.3436H115.277V41.3434ZM99.9272 41.3434L103.913 27.4808H109.63L113.523 41.3434H109.538L108.915 38.9214H104.545L103.913 41.3434H99.9272ZM105.225 36.0995H108.26L106.884 30.3575H106.643L105.225 36.0995ZM99.0599 36.0042V36.4047C99.0599 38.2134 98.6624 39.5192 97.8683 40.317C97.0741 41.1143 95.7774 41.5148 93.9717 41.5148H92.7136C90.7524 41.5148 89.3798 41.0956 88.5922 40.2598C87.8034 39.4239 87.4094 37.953 87.4094 35.8458V32.9726C87.4094 30.8654 87.8034 29.3975 88.5922 28.5616C89.3796 27.7256 90.7522 27.3096 92.7136 27.3096H93.7402C95.6852 27.3096 97.0414 27.6751 97.811 28.4096C98.58 29.14 98.9642 30.4337 98.9642 32.2827V32.5529H95.2655V32.3021C95.2655 31.67 95.1189 31.2213 94.8269 30.9607C94.5374 30.7002 94.0261 30.5699 93.301 30.5699C92.5009 30.5699 91.967 30.7255 91.6992 31.0342C91.4326 31.3455 91.2994 32.0921 91.2994 33.2778V35.5562C91.2994 36.7384 91.4326 37.4849 91.6992 37.7937C91.967 38.1012 92.5008 38.2543 93.301 38.2543C94.0514 38.2543 94.5701 38.1108 94.8558 37.8286C95.1418 37.5458 95.2847 37.0434 95.2847 36.3222V36.0044L99.0599 36.0042ZM72.832 41.3434L76.8174 27.4808H82.5347L86.427 41.3434H82.4418L81.8194 38.9214H77.4494L76.8174 41.3434H72.832ZM78.1295 36.0995H81.1643L79.7881 30.3575H79.5469L78.1295 36.0995Z" fill="#0F172B"/>
<path d="M145.441 49.8469V45.378H148.799V46.3737H146.64V47.1487H148.736V48.0088H146.64V48.8514H148.847V49.8472H145.441V49.8469ZM144.679 46.7735H143.482C143.477 46.6329 143.426 46.5317 143.327 46.4683C143.227 46.4056 143.068 46.3735 142.845 46.3735H142.545C142.271 46.3735 142.09 46.4237 142.002 46.5231C141.914 46.6237 141.87 46.8651 141.87 47.2475V47.9832C141.87 48.3607 141.914 48.6008 142.002 48.7008C142.09 48.801 142.271 48.8511 142.545 48.8511H142.878C143.114 48.8511 143.279 48.8179 143.372 48.7515C143.465 48.6865 143.511 48.5719 143.511 48.4102V48.2365H142.827V47.4006H144.679V48.164C144.679 48.7683 144.547 49.2098 144.282 49.4859C144.016 49.7634 143.598 49.9021 143.026 49.9021H142.212C141.708 49.9021 141.326 49.7418 141.067 49.4234C140.808 49.1037 140.678 48.6328 140.678 48.0109V47.3318C140.678 46.6346 140.815 46.1256 141.088 45.8041C141.362 45.4832 141.795 45.3223 142.387 45.3223H143.037C143.518 45.3223 143.911 45.4423 144.218 45.6805C144.525 45.9206 144.679 46.2209 144.679 46.5839L144.679 46.7735ZM136.596 49.8469V45.378H139.953V46.3737H137.795V47.1487H139.891V48.0088H137.795V48.8514H140.001V49.8472H136.596V49.8469ZM132.847 49.8469V45.378H134.058V48.8085H136.056V49.847L132.847 49.8469ZM129.086 49.8469V45.378H130.297V48.8085H132.295V49.847L129.086 49.8469ZM124.293 47.1486C124.293 46.4702 124.419 45.9955 124.674 45.7264C124.928 45.457 125.37 45.3224 126.002 45.3224H126.59C127.225 45.3224 127.669 45.4576 127.924 45.7276C128.18 45.999 128.307 46.4718 128.307 47.1484V48.076C128.307 48.7526 128.18 49.2254 127.924 49.4963C127.669 49.7673 127.225 49.9021 126.59 49.9021H126.002C125.37 49.9021 124.928 49.7677 124.674 49.4981C124.419 49.2291 124.293 48.7551 124.293 48.076V47.1486ZM125.516 47.2475V47.9832C125.516 48.3656 125.559 48.6055 125.645 48.7032C125.731 48.8021 125.911 48.851 126.186 48.851H126.408C126.682 48.851 126.863 48.8009 126.951 48.7001C127.039 48.6007 127.084 48.3605 127.084 47.983V47.2473C127.084 46.8674 127.039 46.6261 126.951 46.5247C126.863 46.4234 126.682 46.3734 126.408 46.3734H126.186C125.913 46.3734 125.734 46.4235 125.647 46.5243C125.56 46.6239 125.516 46.8651 125.516 47.2475ZM123.709 48.1255V48.2546C123.709 48.8372 123.58 49.2587 123.324 49.5162C123.068 49.773 122.65 49.9021 122.068 49.9021H121.662C121.03 49.9021 120.588 49.7671 120.334 49.4969C120.079 49.2281 119.953 48.7539 119.953 48.0748V47.1484C119.953 46.4693 120.079 45.9953 120.334 45.7263C120.588 45.4568 121.03 45.3223 121.662 45.3223H121.994C122.62 45.3223 123.058 45.4404 123.306 45.6769C123.554 45.9122 123.678 46.3295 123.678 46.926V47.0128H122.485V46.932C122.485 46.7282 122.438 46.584 122.343 46.4997C122.251 46.4152 122.086 46.3735 121.852 46.3735C121.594 46.3735 121.422 46.4237 121.336 46.5231C121.25 46.6237 121.207 46.8645 121.207 47.2461V47.9807C121.207 48.3619 121.25 48.603 121.336 48.702C121.422 48.8021 121.594 48.851 121.852 48.851C122.094 48.851 122.261 48.8046 122.353 48.714C122.446 48.6223 122.492 48.4607 122.492 48.2279V48.1253L123.709 48.1255ZM113.719 49.8469V45.378H117.076V46.3737H114.917V47.1487H117.014V48.0088H114.917V48.8514H117.124V49.8472H113.719V49.8469ZM110.726 49.8469V46.3735H109.576V45.3778H113.08V46.3735H111.936V49.8469H110.726ZM105.574 49.8469L106.859 45.378H108.701L109.957 49.8469H108.671L108.471 49.0664H107.062L106.859 49.8469H105.574ZM107.282 48.1563H108.26L107.816 46.3054H107.739L107.282 48.1563ZM103.595 49.8469V46.3735H102.445V45.3778H105.949V46.3735H104.806V49.8469H103.595ZM98.2596 48.4633H99.409V48.5091C99.409 48.6708 99.4524 48.783 99.5381 48.8468C99.6243 48.9115 99.7758 48.9433 99.994 48.9433H100.294C100.477 48.9433 100.604 48.9186 100.677 48.8698C100.749 48.8215 100.787 48.7346 100.787 48.6104V48.4157C100.787 48.3102 100.758 48.2329 100.699 48.1883C100.642 48.1425 100.51 48.1064 100.306 48.0828L99.3341 47.9773C98.9723 47.9374 98.7069 47.8241 98.5404 47.6371C98.3734 47.4496 98.2903 47.1716 98.2903 46.8037V46.5274C98.2903 46.3193 98.3234 46.1342 98.3898 45.9701C98.4548 45.8072 98.5514 45.6734 98.6779 45.5696C98.7853 45.4792 98.9161 45.4152 99.0701 45.3778C99.2239 45.3411 99.4542 45.3223 99.7594 45.3223H100.478C100.925 45.3223 101.265 45.4127 101.502 45.5925C101.738 45.7734 101.856 46.034 101.856 46.3747V46.6805H100.706V46.6329C100.706 46.4983 100.674 46.4056 100.612 46.3537C100.549 46.3006 100.434 46.2753 100.271 46.2753H99.9939C99.8034 46.2753 99.6731 46.2981 99.6018 46.3429C99.5307 46.3881 99.4949 46.4659 99.4949 46.5757V46.762C99.4949 46.9261 99.6561 47.0268 99.9787 47.0623L100.863 47.1618C101.247 47.2052 101.532 47.3162 101.721 47.4958C101.909 47.6744 102.003 47.9264 102.003 48.251V48.6798C102.003 49.0495 101.889 49.3456 101.658 49.5682C101.427 49.7901 101.118 49.9023 100.73 49.9023H99.7532C99.2314 49.9023 98.8515 49.8119 98.6152 49.6315C98.3786 49.4511 98.2593 49.164 98.2593 48.7722V48.4633H98.2596Z" fill="#0092B8"/>
<path fill-rule="evenodd" clip-rule="evenodd" d="M93.9017 46.6084C94.4566 46.6084 94.9053 47.0582 94.9053 47.6126C94.9053 48.1667 94.4566 48.6167 93.9017 48.6167C93.3471 48.6167 92.8977 48.1667 92.8977 47.6126C92.8977 47.0582 93.3471 46.6084 93.9017 46.6084ZM153.207 46.6084C153.761 46.6084 154.21 47.0582 154.21 47.6126C154.21 48.1667 153.761 48.6167 153.207 48.6167C152.652 48.6167 152.202 48.1667 152.202 47.6126C152.202 47.0582 152.652 46.6084 153.207 46.6084Z" fill="#0092B8"/>
</svg>
