<svg width="72" height="72" viewBox="0 0 72 72" fill="none" xmlns="http://www.w3.org/2000/svg">
<path fill-rule="evenodd" clip-rule="evenodd" d="M48.8355 64.6077C49.157 64.3598 49.4515 64.1544 49.8117 63.9662C53.4356 62.5004 53.8648 64.6959 56.8999 65.1336C54.9553 66.4091 52.9491 66.9427 50.6485 66.4498C49.7905 66.0818 49.2331 65.6353 48.7659 64.8199C49.1319 64.7637 49.7126 64.7095 50.0763 64.7511C51.3629 64.721 52.32 64.8528 53.5569 65.2063C52.3056 64.7037 51.3531 64.5091 50.0032 64.5347C49.5871 64.5168 49.2462 64.54 48.8355 64.6077ZM48.3595 63.0166C48.7561 63.0515 49.0883 63.0534 49.4825 62.9905C52.8265 61.9949 51.8243 59.9573 52.3259 57.3501C50.7552 58.0794 49.6229 59.0808 48.6448 60.5064C48.2835 61.3136 48.1291 61.9867 48.1915 62.8743C48.5914 62.6855 48.8849 62.4975 49.2175 62.205C50.1468 61.4825 50.6577 60.7785 51.0474 59.6671C50.7569 60.8811 50.2776 61.653 49.2907 62.422C48.9895 62.6844 48.7222 62.851 48.3595 63.0166ZM54.5683 62.1896C56.3043 60.3528 57.1032 60.1471 59.4819 60.7708C60.3786 60.9456 61.1345 61.1176 62.0502 60.9374C61.6293 61.427 61.2357 61.8003 60.7233 62.1935C58.8359 63.469 56.3673 64.1604 54.5321 62.4123C55.9945 61.8197 57.4045 61.6463 58.9716 61.7983C57.4209 61.4786 56.0312 61.5639 54.5683 62.1896ZM53.7874 60.7929C56.0787 60.2951 56.7228 59.2889 56.2375 57.0537C56.106 56.3273 55.8767 55.5598 55.857 54.8291C55.5397 55.0844 55.273 55.3337 54.9951 55.631C53.7971 57.0715 53.1501 58.8327 53.5878 60.7008C54.7405 59.8559 55.339 58.6408 55.3225 57.2143C55.485 58.6668 54.9862 59.932 53.7874 60.7929ZM59.2974 58.628C61.6066 54.4998 62.8754 56.5928 66.0006 55.3416C64.7783 57.7414 62.1433 60.2758 59.3172 58.8473C60.5617 57.8866 61.8691 57.2856 63.4007 56.9356C61.8343 57.1215 60.5297 57.6382 59.2974 58.628ZM58.2162 57.5317C61.8024 55.4637 59.5996 53.8511 58.6674 51.3084C57.4879 52.9515 56.8873 55.6805 58.006 57.4993C58.8882 56.3933 59.1482 55.0593 58.7884 53.6952C59.2978 55.0452 59.1351 56.4011 58.2162 57.5317ZM62.964 53.7136C63.0288 53.3504 63.1009 53.0182 63.2103 52.6657C64.3643 49.693 66.1938 50.664 68.3287 49.2171C67.879 51.1346 66.9913 52.7036 65.2161 53.6594C64.4703 53.9993 63.8472 54.1097 63.0449 53.9044C63.2943 53.5665 63.5379 53.2754 63.8284 52.9723C64.608 52.1892 65.295 51.7138 66.278 51.2141C65.1997 51.6277 64.4655 52.0625 63.6468 52.8818C63.3886 53.1519 63.1795 53.4084 62.964 53.7136ZM61.6696 52.9988C61.9417 52.7587 62.1505 52.5402 62.3641 52.2464C63.8428 49.7037 61.7286 48.896 60.6124 46.9615C60.0376 48.4471 59.9084 49.7129 60.3587 51.2533C60.6071 51.9772 60.9025 52.4992 61.4686 53.0232C61.6134 52.6494 61.6946 52.3375 61.7459 51.9405C61.8437 50.9304 61.671 50.1909 61.2172 49.2889C61.7925 50.1915 62.0351 50.9566 61.9283 52.0306C61.8788 52.3858 61.8032 52.6657 61.6696 52.9988ZM65.2083 48.0917C65.1676 46.792 65.2615 45.8264 66.2474 44.9054C67.3326 44.0014 68.5248 43.782 69.4753 42.8382C69.4327 43.7084 69.2418 44.6027 68.9021 45.4061C68.3036 46.8215 67.0057 48.3381 65.3249 48.2534C65.9221 46.914 66.5753 46.0946 67.7243 45.1838C67.7243 45.1838 67.8328 45.1 67.8435 45.0918C67.8086 45.1126 67.7287 45.1567 67.7016 45.1795C66.4693 45.9727 65.7876 46.7416 65.2083 48.0917ZM63.8447 47.7023C64.5424 46.6563 64.8864 45.7165 64.295 44.5364C63.5669 43.3055 62.5683 42.9054 61.8331 41.818C61.6587 42.5981 61.5978 43.2367 61.6404 44.0357C61.7945 45.5882 62.2816 46.9198 63.6611 47.7721C63.8372 46.3969 63.5762 45.412 62.8181 44.2576C62.7982 44.2363 62.7585 44.1703 62.7381 44.1418C62.7498 44.1549 62.8389 44.2565 62.8412 44.2623C63.7169 45.3471 64.0345 46.3111 63.8447 47.7023ZM66.3487 42.2542C65.8001 38.1543 67.8803 38.806 69.8309 36.6841C69.8314 38.9775 69.073 41.8799 66.4818 42.3971C66.8198 41.0509 67.486 39.9139 68.4923 38.9581C67.3801 39.8088 66.6688 40.8901 66.3487 42.2542ZM65.0026 42.0794C66.4819 38.3973 64.175 38.439 62.458 36.3563C62.1858 38.3285 62.7213 41.3656 64.8379 42.1792C64.8569 40.8339 64.4006 39.6234 63.5348 38.5988C64.5173 39.5382 65.0384 40.7129 65.0026 42.0794ZM66.7933 36.5262C65.9619 32.6804 67.9926 33.1347 69.7892 31.0921C69.8811 33.2537 69.2919 35.9615 66.9313 36.6515C67.1405 35.3427 67.6963 34.2163 68.6144 33.2595C67.5917 34.1196 66.985 35.2029 66.7933 36.5262ZM65.4975 36.4686C66.6228 32.7754 64.4771 33.031 62.7387 31.0491C62.5527 32.9584 63.2292 35.9578 65.3487 36.5795C65.2578 35.2778 64.7517 34.138 63.8665 33.1817C64.8602 34.0489 65.4224 35.1481 65.4975 36.4686ZM66.8839 30.7687C65.9705 27.2378 67.9229 27.5795 69.6444 25.7506C69.7369 27.7683 69.1632 30.176 67.0199 30.882C67.1685 29.655 67.6725 28.5931 68.537 27.7088C67.5715 28.5063 67.017 29.5232 66.8839 30.7687ZM65.6472 30.7629C66.5943 27.2338 64.5954 27.5795 62.9238 25.6931C62.8036 27.7297 63.3524 30.1417 65.5096 30.8734C65.3735 29.6433 64.8674 28.5877 64.0104 27.6968C64.9667 28.4997 65.526 29.516 65.6472 30.7629ZM66.876 25.2529C66.0442 22.0865 67.8822 22.4119 69.6154 20.9035C69.6968 22.5746 68.8347 24.9493 67.0054 25.3555C67.153 24.2384 67.6547 23.3013 68.4972 22.5552C67.5671 23.2186 67.0106 24.1134 66.876 25.2529ZM65.7008 25.2398C66.631 22.022 64.7551 22.3548 63.2346 20.5408C62.9688 22.2666 63.6398 24.8659 65.5695 25.3405C65.4442 24.2035 64.9773 23.2418 64.1953 22.4108C65.0708 23.1624 65.5909 24.0844 65.7008 25.2398ZM67 20.4352C66.3651 17.6475 68.122 17.9976 69.8468 16.9487C69.7954 18.4674 68.7238 20.2871 67.1182 20.5316C67.309 19.5472 67.8479 18.7728 68.6782 18.2184C67.7787 18.6939 67.1821 19.4232 67 20.4352ZM65.8873 20.3664C66.9216 17.5657 65.127 17.7622 63.8594 16.0055C63.4391 17.6064 63.9765 19.9423 65.7585 20.4493C65.6888 19.4153 65.2906 18.5448 64.6214 17.7613C65.3777 18.479 65.834 19.3137 65.8873 20.3664ZM67.3685 16.5924C66.9855 14.1393 68.7132 14.5926 70.3315 14.0531C70.1184 15.3867 68.8424 16.6302 67.4727 16.6854C67.7307 15.8409 68.3191 15.254 69.1253 14.9135C68.2726 15.1784 67.6229 15.715 67.3685 16.5924ZM66.327 16.4296C67.5249 14.0898 65.7866 14.0337 64.8607 12.3428C64.2389 13.7838 64.5799 15.8922 66.1992 16.4897C66.2127 15.5605 65.9008 14.7639 65.3715 14.0115C65.9826 14.7126 66.358 15.4835 66.327 16.4296ZM27.7705 71.1488C28.9598 71.2437 29.201 72.312 30.8915 71.909C31.7973 69.3329 43.2718 65.5375 47.3132 64.4805C48.1083 64.2727 48.915 64.0354 49.7431 63.7634C53.0155 62.6023 55.3859 61.3732 58.0352 59.1128C60.279 57.079 61.6338 55.2573 62.9994 52.5611C64.2613 49.9085 64.9209 47.6336 65.4749 44.7592C67.098 34.5244 65.6366 25.3764 67.0921 15.6928C67.025 15.6797 66.9575 15.6671 66.8898 15.6544C65.3538 25.3212 66.7572 34.4857 65.0681 44.6827C64.5015 47.5096 63.8371 49.7476 62.5753 52.3508C61.2219 54.9735 59.8893 56.7405 57.6844 58.7112C55.0802 60.8975 52.7536 62.079 49.5503 63.1928C48.7204 63.4572 47.9116 63.6877 47.1151 63.8881C41.0917 65.4048 29.4455 66.2832 27.7705 71.1488Z" fill="#0F172B"/>
<path fill-rule="evenodd" clip-rule="evenodd" d="M23.1648 64.6077C22.8431 64.3598 22.5482 64.1544 22.1886 63.9662C18.5645 62.5004 18.1354 64.6959 15.1003 65.1336C17.0449 66.4091 19.0507 66.9427 21.3518 66.4498C22.2097 66.0818 22.7671 65.6353 23.2344 64.8199C22.8683 64.7637 22.2872 64.7095 21.9239 64.7511C20.6373 64.721 19.68 64.8528 18.4432 65.2063C19.6946 64.7037 20.6471 64.5091 21.9971 64.5347C22.413 64.5168 22.754 64.54 23.1648 64.6077ZM23.6407 63.0166C23.244 63.0515 22.9114 63.0534 22.5176 62.9905C19.1731 61.9949 20.1759 59.9573 19.6739 57.3501C21.2451 58.0794 22.3773 59.0808 23.3555 60.5064C23.7168 61.3136 23.8712 61.9867 23.8088 62.8743C23.409 62.6855 23.1154 62.4975 22.7828 62.205C21.853 61.4825 21.3422 60.7785 20.9528 59.6671C21.2433 60.8811 21.7228 61.653 22.7096 62.422C23.0106 62.6844 23.2779 62.851 23.6407 63.0166ZM17.4319 62.1896C15.6958 60.3528 14.8969 60.1471 12.5184 60.7708C11.6216 60.9456 10.8652 61.1176 9.95003 60.9374C10.3708 61.427 10.7646 61.8003 11.2765 62.1935C13.1645 63.469 15.633 64.1604 17.4681 62.4123C16.0059 61.8197 14.5957 61.6463 13.0287 61.7983C14.5792 61.4786 15.9689 61.5639 17.4319 62.1896ZM18.2124 60.7929C15.9214 60.2951 15.2774 59.2889 15.7627 57.0537C15.8943 56.3273 16.1229 55.5598 16.1432 54.8291C16.4604 55.0844 16.7267 55.3337 17.0052 55.631C18.2031 57.0715 18.85 58.8327 18.4123 60.7008C17.2598 59.8559 16.6613 58.6408 16.6777 57.2143C16.5151 58.6668 17.0139 59.932 18.2124 60.7929ZM12.7027 58.628C10.3935 54.4998 9.12481 56.5928 5.99963 55.3416C7.22181 57.7414 9.85695 60.2758 12.683 58.8473C11.4379 57.8866 10.1311 57.2856 8.59943 56.9356C10.166 57.1215 11.4704 57.6382 12.7027 58.628ZM13.7835 57.5317C10.1978 55.4637 12.4001 53.8511 13.3328 51.3084C14.5124 52.9515 15.1128 55.6805 13.9943 57.4993C13.1121 56.3933 12.8519 55.0593 13.2118 53.6952C12.7023 55.0452 12.865 56.4011 13.7835 57.5317ZM9.03617 53.7136C8.97131 53.3504 8.89875 53.0182 8.78938 52.6657C7.63587 49.693 5.80649 50.664 3.67143 49.2171C4.12127 51.1346 5.00883 52.7036 6.78415 53.6594C7.52983 53.9993 8.15295 54.1097 8.95528 53.9044C8.70537 53.5665 8.46232 53.2754 8.17135 52.9723C7.39211 52.1892 6.70509 51.7138 5.72211 51.2141C6.80053 51.6277 7.53459 52.0625 8.35346 52.8818C8.61158 53.1519 8.82065 53.4084 9.03617 53.7136ZM10.3306 52.9988C10.0584 52.7587 9.84968 52.5402 9.63619 52.2464C8.15732 49.7037 10.2715 48.896 11.3872 46.9615C11.9625 48.4471 12.0917 49.7129 11.6414 51.2533C11.3926 51.9772 11.0977 52.4992 10.5316 53.0232C10.3869 52.6494 10.3056 52.3375 10.2542 51.9405C10.1563 50.9304 10.3293 50.1909 10.7829 49.2889C10.2077 50.1915 9.96501 50.9566 10.072 52.0306C10.1214 52.3858 10.1969 52.6657 10.3306 52.9988ZM6.79187 48.0917C6.83257 46.792 6.73869 45.8264 5.75273 44.9054C4.66765 44.0014 3.47534 43.782 2.52496 42.8382C2.56745 43.7084 2.75833 44.6027 3.09773 45.4061C3.69668 46.8215 4.99455 48.3381 6.67537 48.2534C6.07785 46.914 5.42509 46.0946 4.27598 45.1838C4.27598 45.1838 4.16745 45.1 4.15686 45.0918C4.19173 45.1126 4.27157 45.1567 4.2987 45.1795C5.53088 45.9727 6.21256 46.7416 6.79187 48.0917ZM8.15555 47.7023C7.4577 46.6563 7.11388 45.7165 7.70509 44.5364C8.4334 43.3055 9.43186 42.9054 10.1666 41.818C10.3414 42.5981 10.4022 43.2367 10.3597 44.0357C10.2058 45.5882 9.71808 46.9198 8.33905 47.7721C8.16292 46.3969 8.42391 45.412 9.18161 44.2576C9.20208 44.2363 9.24122 44.1703 9.26157 44.1418C9.25038 44.1549 9.16092 44.2565 9.15889 44.2623C8.28337 45.3471 7.96561 46.3111 8.15555 47.7023ZM5.6511 42.2542C6.20007 38.1543 4.11983 38.806 2.16935 36.6841C2.16887 38.9775 2.92718 41.8799 5.51838 42.3971C5.18041 41.0509 4.5141 39.9139 3.5078 38.9581C4.61954 39.8088 5.33146 40.8901 5.6511 42.2542ZM6.99763 42.0794C5.51829 38.3973 7.82517 38.439 9.54217 36.3563C9.81433 38.3285 9.27882 41.3656 7.16185 42.1792C7.1434 40.8339 7.59956 39.6234 8.46532 38.5988C7.48282 39.5382 6.96169 40.7129 6.99763 42.0794ZM5.20687 36.5262C6.03824 32.6804 4.0075 33.1347 2.21101 31.0921C2.11902 33.2537 2.70775 35.9615 5.06892 36.6515C4.85924 35.3427 4.30384 34.2163 3.38571 33.2595C4.40844 34.1196 5.01515 35.2029 5.20687 36.5262ZM6.50267 36.4686C5.37689 32.7754 7.52256 33.031 9.26145 31.0491C9.44746 32.9584 8.7709 35.9578 6.65143 36.5795C6.74247 35.2778 7.24801 34.138 8.13364 33.1817C7.13995 34.0489 6.57776 35.1481 6.50267 36.4686ZM5.1164 30.7687C6.02964 27.2378 4.07728 27.5795 2.35576 25.7506C2.26341 27.7683 2.83709 30.176 4.98025 30.882C4.83114 29.655 4.32762 28.5931 3.46317 27.7088C4.42866 28.5063 4.98323 29.5232 5.1164 30.7687ZM6.3531 30.7629C5.40594 27.2338 7.40484 27.5795 9.07638 25.6931C9.19657 27.7297 8.64784 30.1417 6.49053 30.8734C6.62667 29.6433 7.1327 28.5877 7.9893 27.6968C7.03345 28.4997 6.47413 29.516 6.3531 30.7629ZM5.12366 25.2529C5.95598 22.0865 4.11793 22.4119 2.38475 20.9035C2.30288 22.5746 3.16496 24.9493 4.99489 25.3555C4.84709 24.2384 4.34547 23.3013 3.50292 22.5552C4.43306 23.2186 4.98954 24.1134 5.12366 25.2529ZM6.29929 25.2398C5.36915 22.022 7.24504 22.3548 8.76568 20.5408C9.03094 22.2666 8.35986 24.8659 6.43068 25.3405C6.55551 24.2035 7.02301 23.2418 7.80487 22.4108C6.92947 23.1624 6.40925 24.0844 6.29929 25.2398ZM4.99966 20.4352C5.63502 17.6475 3.87769 17.9976 2.15296 16.9487C2.20425 18.4674 3.27626 20.2871 4.88199 20.5316C4.69122 19.5472 4.15234 18.7728 3.32145 18.2184C4.2216 18.6939 4.81806 19.4232 4.99966 20.4352ZM6.11283 20.3664C5.07808 17.5657 6.87315 17.7622 8.14079 16.0055C8.56111 17.6064 8.02321 19.9423 6.24159 20.4493C6.31133 19.4153 6.70949 18.5448 7.37818 17.7613C6.62238 18.479 6.16614 19.3137 6.11283 20.3664ZM4.63108 16.5924C5.01463 14.1393 3.28692 14.5926 1.66846 14.0531C1.88159 15.3867 3.15761 16.6302 4.52736 16.6854C4.26888 15.8409 3.68109 15.254 2.87472 14.9135C3.72762 15.1784 4.37736 15.715 4.63108 16.5924ZM5.67324 16.4296C4.47522 14.0898 6.21362 14.0337 7.13947 12.3428C7.76127 13.7838 7.4202 15.8922 5.80102 16.4897C5.78745 15.5605 6.09938 14.7639 6.62859 14.0115C6.01762 14.7126 5.64218 15.4835 5.67324 16.4296ZM44.2296 71.1488C43.0403 71.2437 42.7992 72.312 41.1088 71.909C40.2028 69.3329 28.7284 65.5375 24.6871 64.4805C23.8919 64.2727 23.0852 64.0354 22.2571 63.7634C18.9846 62.6023 16.6144 61.3732 13.9651 59.1128C11.7211 57.079 10.3663 55.2573 9.00072 52.5611C7.7388 49.9085 7.07924 47.6336 6.52528 44.7592C4.90217 34.5244 6.36357 25.3764 4.90802 15.6928C4.97478 15.6797 5.04264 15.6671 5.11047 15.6544C6.64634 25.3212 5.24305 34.4857 6.93209 44.6827C7.49879 47.5096 8.16305 49.7476 9.42485 52.3508C10.7783 54.9735 12.1109 56.7405 14.3157 58.7112C16.9199 60.8975 19.2467 62.079 22.4499 63.1928C23.2799 63.4572 24.0886 63.6877 24.8851 63.8881C30.9084 65.4048 42.5542 66.2832 44.2296 71.1488Z" fill="#0F172B"/>
<path fill-rule="evenodd" clip-rule="evenodd" d="M26.1748 3.71021L26.8923 5.93286L29.2273 5.92798L27.3355 7.29737L28.0613 9.51704L26.1748 8.14087L24.2878 9.51704L25.0137 7.29737L23.1218 5.92798L25.4572 5.93286L26.1748 3.71021ZM45.8257 3.71021L45.1081 5.93286L42.7731 5.92798L44.665 7.29737L43.9391 9.51704L45.8257 8.14087L47.7126 9.51704L46.9867 7.29737L48.8786 5.92798L46.5431 5.93286L45.8257 3.71021ZM18.6105 7.15016L19.1824 8.92142L21.0448 8.91857L19.5358 10.0101L20.1145 11.7794L18.6104 10.6821L17.1063 11.7794L17.685 10.0101L16.1765 8.91857L18.0385 8.92142L18.6105 7.15016ZM53.3899 7.15016L52.818 8.92142L50.9556 8.91809L52.4646 10.0101L51.886 11.7794L53.39 10.6821L54.8941 11.7794L54.3155 10.0101L55.8239 8.91809L53.9621 8.92142L53.3899 7.15016ZM36.0002 0L37.0302 3.19016L40.382 3.18337L37.6664 5.14838L38.7086 8.33461L36.0002 6.3589L33.2924 8.33461L34.334 5.14838L31.6185 3.18337L34.9702 3.19016L36.0002 0Z" fill="#0092B8"/>
<path fill-rule="evenodd" clip-rule="evenodd" d="M34.8134 51.2165C29.8589 47.9701 24.11 45.1335 18.2276 44.4188C17.4576 45.2962 16.5512 46.4835 15.51 47.9808C16.5764 47.8505 17.6378 47.7701 18.6954 47.7387C24.1818 47.5755 29.5547 48.7352 34.8134 51.2165ZM20.7281 39.0389C23.0186 39.5852 25.3266 40.4041 27.6139 41.4509C30.1754 42.6234 32.7114 44.0818 35.1699 45.764V46.2308C32.6625 44.4982 30.0718 42.999 27.4542 41.8011C25.1724 40.757 22.87 39.9421 20.5858 39.4022L20.7281 39.0389ZM21.8865 36.0794C23.9677 36.646 26.0587 37.4352 28.1311 38.4114C30.517 39.5358 32.878 40.9101 35.1699 42.479V42.9473C32.8262 41.3266 30.4088 39.9117 27.9665 38.7606C25.9008 37.7868 23.8176 37.0023 21.745 36.4407L21.8865 36.0794ZM23.0429 33.1266C24.9149 33.7105 26.7913 34.468 28.6492 35.3738C30.8563 36.4499 33.0417 37.7374 35.1699 39.195V39.6617C32.9928 38.1568 30.7498 36.828 28.4802 35.721C26.63 34.8188 24.7629 34.0659 22.9013 33.4868L23.0429 33.1266ZM37.1873 51.2165C42.142 47.9701 47.8907 45.1335 53.7722 44.4188C54.5432 45.2962 55.4491 46.4835 56.4907 47.9808C55.4243 47.8505 54.3624 47.7701 53.3048 47.7387C47.8191 47.5755 42.446 48.7352 37.1873 51.2165ZM56.7124 43.5864C50.4905 43.5472 43.5863 46.0894 35.9999 51.2135C28.414 46.0894 21.5098 43.5472 15.2883 43.5864L22.2594 28.8701C26.0441 30.1019 31.5585 32.498 35.3524 36.2682L35.1651 36.1394L35.1635 36.1384L34.9781 36.0115L34.9742 36.009L34.7901 35.8835L34.7853 35.8807L34.5955 35.7529L34.4134 35.6318L34.4057 35.626L34.2251 35.5069L34.2148 35.5006L34.0357 35.383L34.0251 35.3762L33.8468 35.26L33.8343 35.2517L33.6576 35.138L33.6431 35.1288L33.4683 35.0169L33.4518 35.0068L33.2784 34.8969L33.1272 34.8025L33.0881 34.7779L33.0682 34.7653L32.8978 34.6592L32.8764 34.6461L32.7069 34.5415L32.6837 34.5275L32.5162 34.4253L32.4911 34.4098L32.3249 34.309L32.2983 34.2935L32.2503 34.2645L32.1094 34.1802L32.1055 34.1779L31.9418 34.0805L31.9123 34.0631L31.7501 33.9683L31.7192 33.9498L31.6697 33.9213L31.5355 33.8433L31.5254 33.837L31.3661 33.7455L31.3312 33.7252L31.1739 33.6351L31.1371 33.6147L30.9811 33.5267L30.9433 33.5054L30.892 33.4763L30.7536 33.3993L30.7224 33.3819L30.5685 33.2972L30.5153 33.2672L30.3628 33.1839L30.3375 33.1704L30.1831 33.0871L30.1105 33.0478L29.9851 32.9805L29.9691 32.9719L29.8218 32.8939L29.8053 32.8852L29.7007 32.8305L29.5961 32.7753L29.5341 32.7432L29.3869 32.6667L29.3647 32.6551L29.2126 32.5771L29.1118 32.5258L29.015 32.4769L28.9352 32.4362L28.8164 32.3772L28.7395 32.3385L28.6278 32.2833L28.5251 32.233L28.4293 32.1855L28.3605 32.1526L28.2152 32.0819L28.1852 32.0674L28.021 31.989L27.9784 31.9686L27.8366 31.9018L27.7591 31.8659L27.6502 31.8147L27.5489 31.7681L27.4443 31.7197L27.3775 31.6892L27.2486 31.6306L27.1712 31.5957L27.059 31.5453L26.9549 31.4988L26.87 31.4611L26.7654 31.415L26.658 31.3681L26.5946 31.341L26.4566 31.281L26.3898 31.2525L26.2726 31.2026L26.1723 31.1605L26.0774 31.1203L25.9936 31.0859L25.8717 31.035L25.7855 31.0002L25.6876 30.9606L25.5908 30.9209L25.4804 30.8768L25.3913 30.8414L25.2994 30.8047L25.1774 30.7572L25.0969 30.7262L25.0064 30.6909L24.8892 30.6459L24.8094 30.6159L24.6839 30.5684L24.6122 30.5413L24.5071 30.5026L24.4005 30.4634L24.3008 30.4271L24.2166 30.3966L24.0994 30.3545L24.021 30.3264L23.8986 30.2828L23.8264 30.2577L23.7024 30.2151L23.6308 30.1905L23.502 30.1463L23.4239 30.1201L23.3267 30.0873L23.2116 30.0496L23.1369 30.0253L23.1204 30.0195L23.0197 29.9865L22.9804 29.974H22.9799L21.808 32.9675L20.6352 35.9639L19.4615 38.9622L18.2867 41.9624L18.434 41.9876C24.3173 42.99 30.379 45.8605 35.9999 49.8631C41.6683 45.8266 47.7841 42.9415 53.7136 41.9624L52.5394 38.9622L51.3657 35.9639L50.1924 32.9675L49.0418 30.0292L49.0205 29.974L48.9813 29.9865L48.8636 30.0253L48.7895 30.0496L48.6744 30.0873L48.5766 30.1201L48.498 30.1463L48.3702 30.1905L48.2985 30.2151L48.1741 30.2577L48.1019 30.2828L47.98 30.3264L47.9016 30.3545L47.7834 30.3966L47.7002 30.4271L47.6005 30.4634L47.4929 30.5026L47.3883 30.5413L47.3166 30.5684L47.1912 30.6159L47.1114 30.6459L46.9946 30.6909L46.9036 30.7262L46.8226 30.7572L46.7007 30.8047L46.609 30.8414L46.5205 30.8768L46.4101 30.9209L46.3132 30.9606L46.2155 31.0002L46.1293 31.035L46.0073 31.0859L45.923 31.1203L45.8286 31.1605L45.7284 31.2026L45.6112 31.2525L45.5439 31.281L45.4059 31.341L45.3429 31.3681L45.2356 31.415L45.1305 31.4611L45.0462 31.4988L44.942 31.5453L44.8293 31.5957L44.7519 31.6306L44.6236 31.6892L44.5567 31.7197L44.4521 31.7681L44.3504 31.8147L44.242 31.8659L44.1646 31.9018L44.0227 31.9686L43.9797 31.989L43.8155 32.0674L43.7854 32.0819L43.6406 32.1526L43.5719 32.1855L43.476 32.233L43.3733 32.2833L43.2611 32.3385L43.1842 32.3772L43.0655 32.4362L42.9856 32.4769L42.8892 32.5258L42.7879 32.5771L42.6364 32.6551L42.6137 32.6667L42.4665 32.7432L42.4045 32.7753L42.3005 32.8305L42.1953 32.8852L42.1788 32.8939L42.0321 32.9719L42.0157 32.9805L41.8902 33.0478L41.8175 33.0871L41.6631 33.1704L41.638 33.1839L41.4859 33.2672L41.4326 33.2972L41.2787 33.3819L41.2466 33.3993L41.1093 33.4763L41.0578 33.5054L41.0195 33.5267L40.8636 33.6147L40.8272 33.6351L40.6694 33.7252L40.6345 33.7455L40.4758 33.837L40.4651 33.8433L40.331 33.9213L40.2819 33.9498L40.2505 33.9683L40.0883 34.0631L40.0588 34.0805L39.8956 34.1779L39.8917 34.1802L39.7503 34.2645L39.7024 34.2935L39.6757 34.309L39.5091 34.4098L39.4849 34.4253L39.3169 34.5275L39.2942 34.5415L39.1247 34.6461L39.1034 34.6592L38.9329 34.7653L38.9127 34.7779L38.8734 34.8025L38.7227 34.8969L38.5493 35.0068L38.5328 35.0169L38.358 35.1288L38.3431 35.138L38.1667 35.2517L38.1542 35.26L37.9761 35.3762L37.9644 35.383L37.7858 35.5006L37.7756 35.5069L37.5954 35.626L37.5872 35.6318L37.4056 35.7529L37.2159 35.8807L37.211 35.8835L37.0264 36.009L37.0231 36.0115L36.8371 36.1384L36.8355 36.1394L36.6482 36.2682C40.4427 32.498 45.9566 30.1019 49.7412 28.8701L56.7124 43.5864ZM39.3914 50.9685C44.0177 49.0839 48.8142 48.1967 53.7819 48.4171C54.7783 49.8771 55.5521 51.2843 56.1027 52.6401C50.5574 50.5104 44.9868 49.9536 39.3914 50.9685ZM51.2726 39.0389C48.9822 39.5852 46.6742 40.4041 44.3859 41.4509C41.8252 42.6234 39.2888 44.0818 36.8309 45.764V46.2308C39.3382 44.4982 41.9289 42.999 44.5461 41.8011C46.8284 40.757 49.1302 39.9421 51.4149 39.4022L51.2726 39.0389ZM50.1143 36.0794C48.0331 36.646 45.9417 37.4352 43.8697 38.4114C41.4833 39.5358 39.1222 40.9101 36.8309 42.479V42.9473C39.1746 41.3266 41.5919 39.9117 44.0342 38.7606C46.0994 37.7868 48.1831 37.0023 50.2557 36.4407L50.1143 36.0794ZM48.9579 33.1266C47.0854 33.7105 45.209 34.468 43.3511 35.3738C41.1445 36.4499 38.9587 37.7374 36.8309 39.195V39.6617C39.008 38.1568 41.251 36.828 43.5201 35.721C45.3708 34.8188 47.2375 34.0659 49.0994 33.4868L48.9579 33.1266ZM32.6093 50.9685C27.983 49.0839 23.1861 48.1967 18.2189 48.4171C17.2214 49.8771 16.4477 51.2843 15.8975 52.6401C21.4429 50.5104 27.0135 49.9536 32.6093 50.9685ZM49.0203 29.9733L48.9812 29.9858ZM22.9799 29.9733L23.0197 29.9858L23.1368 30.0246" fill="#0092B8"/>
<path fill-rule="evenodd" clip-rule="evenodd" d="M36.9976 30.6191C36.6828 30.5194 36.3479 30.4656 35.9996 30.4656C35.652 30.4656 35.3169 30.5194 35.0021 30.6191L32.9005 27.8623H39.0997L36.9976 30.6191ZM35.9996 34.4295L30.6062 27.3563V14.3867H32.1268V26.3419H33.6952V14.3867H35.2157V26.3419H36.7841V14.3867H38.3045V26.3419H39.8725V14.3867H41.3935V27.3563L35.9996 34.4295Z" fill="#0092B8"/>
</svg>
